# xmcd
#
# Track frame offsets:
#	150
#	11787
#	23289
#	35150
#	46920
#	57488
#	69162
#	80077
#	91799
#
# Disc length: 1356 seconds
#
# Revision: 0
# Processed by: cddbd v1.4b42PL1 Copyright (c) Steve Scherf et al.
# Submitted via: EZCDDA 4.3.3.2
#
DISCID=68054a09
DTITLE=Kitty Wells - Good Old Country
DYEAR=1900
DGENRE=
TTITLE0=Heartbreak U.S.A.
TTITLE1=It Wasn't God Who Made Honky Tonk Angels
TTITLE2=Amigo's Guitar
TTITLE3=You Don't Hear
TTITLE4=Searching
TTITLE5=Password
TTITLE6=Mommy For A Day
TTITLE7=Left to Right
TTITLE8=I Can't Stop Loving You
EXTD=
EXTT0=
EXTT1=
EXTT2=
EXTT3=
EXTT4=
EXTT5=
EXTT6=
EXTT7=
EXTT8=
PLAYORDER=
